<svg width="601" height="601" viewBox="0 0 601 601" fill="none" xmlns="http://www.w3.org/2000/svg">
<path fill-rule="evenodd" clip-rule="evenodd" d="M299.394 51.1205C300.821 50.9599 302.214 50.9598 303.641 51.1205C317.275 52.6616 323.976 85.8656 337.369 149.803C342.927 176.332 347.962 190.741 360.321 196.998C387.862 210.932 436.07 162.482 454.592 181.431C473.016 200.293 423.474 251.13 435.094 279.182C446.831 307.504 517.547 307.899 517.844 334.511H518C517.998 360.711 449.845 361.133 440.325 390.17C436.009 403.335 442.636 417.083 457.465 439.771C493.208 494.457 511.953 522.673 503.397 533.401C502.501 534.524 501.516 535.507 500.392 536.403C489.663 544.956 461.447 526.215 406.765 490.474C384.077 475.645 370.328 469.016 357.164 473.331C327.835 482.951 328.007 551.3 301.511 550.999V550.841L301.509 550.843C274.896 550.548 274.508 479.82 246.185 468.083C218.134 456.465 167.297 506.009 148.434 487.588C129.907 469.062 177.793 420.574 163.998 393.308C157.741 380.949 143.332 375.914 116.804 370.356C52.8649 356.963 19.6608 350.263 18.1205 336.628C17.9598 335.201 17.9599 333.808 18.1205 332.381C19.6572 318.745 52.8612 312.048 116.804 298.653C143.332 293.096 157.741 288.06 163.998 275.701C177.938 248.16 129.481 199.954 148.431 181.431C166.959 162.905 215.449 210.798 242.714 196.998C255.073 190.741 260.109 176.332 265.666 149.803C279.061 85.8603 285.757 52.6565 299.394 51.1205ZM260.339 287.02C241.416 287.021 227.201 316.751 227.52 341.679C227.741 358.957 235.801 365.344 249.506 369.267C271.08 375.441 284.58 372.656 286.901 349.546C289.681 321.869 284.731 287.02 260.339 287.02ZM342.684 287.02C318.292 287.02 313.342 321.869 316.122 349.546C318.443 372.656 331.943 375.441 353.517 369.267C367.223 365.344 375.281 358.958 375.503 341.679C375.822 316.751 361.607 287.02 342.684 287.02Z" fill="black"/>
</svg>
