<svg width="272" height="102" viewBox="0 0 272 102" fill="none" xmlns="http://www.w3.org/2000/svg">
<path fill-rule="evenodd" clip-rule="evenodd" d="M59.6796 3.95446C59.9282 3.92649 60.1707 3.92646 60.4193 3.95446C62.7939 4.22287 63.9609 10.0059 66.2936 21.1418C67.2615 25.7621 68.1384 28.2717 70.2911 29.3614C75.0878 31.7883 83.4839 23.3499 86.7098 26.6502C89.9187 29.9354 81.2902 38.7895 83.3139 43.6753C85.3582 48.608 97.6745 48.6768 97.7263 53.3117H97.7534C97.753 57.8749 85.8832 57.9484 84.225 63.0057C83.4734 65.2985 84.6276 67.693 87.2103 71.6446C93.4356 81.1691 96.7003 86.0833 95.2101 87.9518C95.054 88.1474 94.8824 88.3186 94.6868 88.4747C92.818 89.9643 87.9038 86.7002 78.38 80.4753C74.4285 77.8927 72.0338 76.7381 69.7411 77.4896C64.6331 79.165 64.6631 91.0692 60.0484 91.0168V90.9892L60.0479 90.9896C55.4128 90.9382 55.3453 78.6197 50.4124 76.5755C45.5267 74.5521 36.6726 83.181 33.3874 79.9727C30.1606 76.746 38.5008 68.301 36.0981 63.5523C35.0084 61.3996 32.4988 60.5227 27.8785 59.5548C16.7425 57.222 10.9594 56.0552 10.6912 53.6805C10.6632 53.4319 10.6632 53.1893 10.6912 52.9407C10.9588 50.5658 16.7418 49.3993 27.8785 47.0664C32.4988 46.0986 35.0083 45.2215 36.0981 43.0689C38.526 38.2723 30.0865 29.8763 33.3869 26.6502C36.6139 23.4237 45.0592 31.7651 49.8078 29.3614C51.9604 28.2716 52.8374 25.7621 53.8053 21.1418C56.1382 10.005 57.3046 4.22197 59.6796 3.95446ZM52.8775 45.0404C49.5818 45.0405 47.106 50.2185 47.1616 54.5601C47.2001 57.5695 48.6037 58.6818 50.9908 59.365C54.7482 60.4403 57.0994 59.9553 57.5037 55.9304C57.9879 51.1098 57.1258 45.0404 52.8775 45.0404ZM67.2193 45.0404C62.971 45.0404 62.1088 51.1099 62.593 55.9304C62.9973 59.9553 65.3486 60.4403 69.1059 59.365C71.4931 58.6818 72.8966 57.5696 72.9352 54.5601C72.9907 50.2185 70.515 45.0404 67.2193 45.0404Z" fill="white"/>
<path d="M231.047 77.4404C227.258 77.4404 224.232 76.4564 221.969 74.4884C219.706 72.4711 218.574 69.8143 218.574 66.5178C218.574 64.1562 219.14 62.1636 220.272 60.5399C221.452 58.9163 223.027 57.6371 224.995 56.7023C226.963 55.7183 229.128 55.0541 231.489 54.7097L239.165 53.6027C239.854 53.5043 240.346 53.332 240.641 53.086C240.985 52.7908 241.157 52.3972 241.157 51.9052C241.157 50.9212 240.936 50.0602 240.493 49.3222C240.05 48.535 239.46 47.8954 238.722 47.4034C237.984 46.9114 237.147 46.6654 236.213 46.6654H233.63C232.695 46.6654 231.834 46.8622 231.047 47.2558C230.309 47.6494 229.694 48.2152 229.202 48.9532C228.759 49.6912 228.488 50.6014 228.39 51.6838H218.722C218.919 49.1254 219.706 46.9114 221.083 45.0417C222.51 43.1229 224.331 41.6469 226.545 40.6137C228.759 39.5805 231.12 39.0638 233.63 39.0638H236.286C239.288 39.0638 241.871 39.7035 244.036 40.9827C246.2 42.2127 247.849 43.8609 248.98 45.9273C250.161 47.9938 250.751 50.3062 250.751 52.8646V66.1488C250.751 67.428 251.071 68.2153 251.711 68.5105C252.4 68.7565 253.433 68.8795 254.811 68.8795V76.85H248.759C247.824 76.85 247.012 76.7762 246.323 76.6286C245.684 76.4318 245.143 76.1366 244.7 75.743C244.257 75.3494 243.888 74.8328 243.593 74.1932C243.199 73.6027 242.756 73.3075 242.264 73.3075C241.772 73.2583 241.28 73.4797 240.788 73.9717C239.952 74.8574 238.673 75.6692 236.951 76.4072C235.229 77.096 233.261 77.4404 231.047 77.4404ZM232.892 70.2079C234.515 70.2079 235.942 69.8635 237.172 69.1747C238.402 68.4367 239.362 67.4773 240.05 66.2964C240.788 65.1156 241.157 63.7872 241.157 62.3112V62.1636C241.157 61.4748 240.985 61.0074 240.641 60.7614C240.296 60.4662 239.755 60.3678 239.017 60.4662L234.146 61.3518C232.375 61.647 230.948 62.1144 229.866 62.754C228.783 63.3936 228.242 64.5252 228.242 66.1488C228.242 67.3788 228.685 68.3629 229.571 69.1009C230.456 69.8389 231.563 70.2079 232.892 70.2079Z" fill="white"/>
<path d="M211.944 47.6213C210.812 47.6213 209.804 47.8673 208.918 48.3593C208.032 48.8513 207.294 49.5155 206.704 50.3519C206.114 51.1391 205.646 52.0493 205.302 53.0825C205.007 54.1158 204.859 55.1736 204.859 56.256V76.8465H195.339V39.6508H204.859V41.1268C204.859 41.914 205.08 42.3814 205.523 42.529C206.015 42.6766 206.606 42.4306 207.294 41.791C208.032 41.053 208.844 40.5118 209.73 40.1674C210.615 39.823 211.698 39.6508 212.977 39.6508H216.962V47.6213H211.944Z" fill="white"/>
<path d="M179.013 76.8483V39.6526H188.533V76.8483H179.013Z" fill="white"/>
<path d="M183.812 35.2767C186.75 35.2767 189.146 33.3221 189.146 30.286C189.146 27.2499 186.75 24.4406 183.812 24.4406C180.874 24.4406 178.507 27.2499 178.507 30.286C178.507 33.3221 180.874 35.2767 183.812 35.2767Z" fill="white"/>
<path d="M118.885 76.8467V25.1859H131.431L143.977 59.2082C144.272 60.0446 144.715 60.4628 145.305 60.4628C145.945 60.4628 146.412 60.0446 146.708 59.2082L159.254 25.1859H171.8V76.8467H161.837L161.911 48.0642C161.911 47.2278 161.615 46.785 161.025 46.7358C160.435 46.6374 160.016 46.9326 159.77 47.6214L149.069 76.8467H141.541L130.914 47.6214C130.668 46.9326 130.225 46.6374 129.586 46.7358C128.995 46.785 128.7 47.2278 128.7 48.0642L128.848 76.8467H118.885Z" fill="white"/>
</svg>
